<svg xmlns="http://www.w3.org/2000/svg" xmlns:xlink="http://www.w3.org/1999/xlink" width="622.753" height="515.105" viewBox="0 0 622.753 515.105">
  <defs>
    <linearGradient id="linear-gradient" x1="0.017" y1="0.575" x2="1.012" y2="0.373" gradientUnits="objectBoundingBox">
      <stop offset="0" stop-color="#5ebdb4"/>
      <stop offset="1" stop-color="#729af0"/>
    </linearGradient>
  </defs>
  <g id="Group_52" data-name="Group 52" transform="translate(54.051 -175.588)">
    <path id="Subtraction_3" data-name="Subtraction 3" d="M-3761.246-1510.938h0c-11.077-8.258-18.2-18.086-21.185-29.209a49.042,49.042,0,0,1-.509-22.5,76.2,76.2,0,0,1,9.5-23.63,136.71,136.71,0,0,1,18.607-24.067,230.227,230.227,0,0,1,26.8-23.806,345.694,345.694,0,0,1,34.1-22.852c12.54-7.417,26.16-14.551,40.481-21.2,14.579-6.773,30.042-13.118,45.958-18.859,16.319-5.887,33.319-11.21,50.53-15.822,49.1-13.156,98.284-20.11,142.243-20.11a339.875,339.875,0,0,1,51.91,3.714,197.09,197.09,0,0,1,42.1,10.938c12.276,4.871,22.35,10.878,29.943,17.855,7.825,7.19,13.021,15.422,15.445,24.466,3.364,12.559,1.337,26.266-6.026,40.74a116.183,116.183,0,0,1-14.321,21.311,190.058,190.058,0,0,1-21.016,21.292,297.526,297.526,0,0,1-34.7,25.842c-34.437,4.976-69.351,19.308-100.969,41.447-2.089,1.463-4.186,2.976-6.231,4.5-33.427-31.576-86.954-51.014-143.187-52-1.539-.026-3.1-.04-4.653-.04-63.993,0-123.318,23.754-154.824,61.993Z" transform="translate(3730.375 1908.588)" opacity="0.19" fill="url(#linear-gradient)"/>
    <path id="Subtraction_4" data-name="Subtraction 4" d="M-3598.872-1427.964c-1.539,0-3.1-.014-4.655-.041a261.166,261.166,0,0,1-36.328-3.164,242.273,242.273,0,0,1-33.75-7.844,216.091,216.091,0,0,1-30.456-12.012,184.112,184.112,0,0,1-26.444-15.666,150.38,150.38,0,0,1-21.716-18.808,120.181,120.181,0,0,1-16.271-21.435,98.305,98.305,0,0,1-10.108-23.55,88.188,88.188,0,0,1-3.229-25.151,88.148,88.148,0,0,1,3.986-24.645,97.938,97.938,0,0,1,10.606-22.87,119.171,119.171,0,0,1,16.524-20.628,148.622,148.622,0,0,1,21.742-17.921,181.784,181.784,0,0,1,26.26-14.749,213.563,213.563,0,0,1,30.076-11.111,239.979,239.979,0,0,1,33.192-7.008,259.338,259.338,0,0,1,35.607-2.439c1.543,0,3.108.014,4.652.041a259.536,259.536,0,0,1,42.637,4.25,235.619,235.619,0,0,1,38.863,10.646,201.913,201.913,0,0,1,33.91,16.2,162.476,162.476,0,0,1,27.776,20.9c-34.485,25.662-61.278,58.883-75.441,93.547-14.095,34.494-14.828,68.222-2.065,94.971A250.045,250.045,0,0,1-3598.872-1427.964Z" transform="translate(3727.79 2012.663)" opacity="0.19" fill="url(#linear-gradient)"/>
    <ellipse id="Ellipse_21" data-name="Ellipse 21" cx="180.5" cy="124.5" rx="180.5" ry="124.5" transform="matrix(-0.819, 0.574, -0.574, -0.819, 568.702, 483.632)" opacity="0.19" fill="url(#linear-gradient)"/>
  </g>
</svg>
